# xmcd
#
# Track frame offsets:
#	150
#	18608
#	32135
#	57159
#	88193
#	107392
#	131686
#	152185
#	167349
#	190078
#	210162
#	226572
#	244199
#	264166
#	278453
#	298287
#
# Disc length: 4228 seconds
#
# Revision: 0
# Processed by: cddbd v1.5.2PL0 Copyright (c) Steve Scherf et al.
# Submitted via: SynApp - FreeCDDB Version: 2.3
#
DISCID=cc108210
DTITLE=Waits, Tom - Waits, Tom - Mule Variations
DYEAR=1999
DGENRE=Rock
TTITLE0=Big In Japan
TTITLE1=Lowside of the Road
TTITLE2=Hold On
TTITLE3=Get Behind the Mule
TTITLE4=House Where Nobody Lives
TTITLE5=Cold Water
TTITLE6=Pony
TTITLE7=What's He Building?
TTITLE8=Black Market Baby
TTITLE9=Eyeball Kid
TTITLE10=Picture in a Frame
TTITLE11=Chocolate Jesus
TTITLE12=Georgia Lee
TTITLE13=Filipino Box Spring Hog
TTITLE14=Take it with Me
TTITLE15=Come on up to the House
EXTD=
EXTT0=
EXTT1=
EXTT2=
EXTT3=
EXTT4=
EXTT5=
EXTT6=
EXTT7=
EXTT8=
EXTT9=
EXTT10=
EXTT11=
EXTT12=
EXTT13=
EXTT14=
EXTT15=
PLAYORDER=
